<svg width="244" height="185" viewBox="0 0 244 185" fill="none" xmlns="http://www.w3.org/2000/svg">
<path d="M229.222 7.40116C229.222 11.4887 232.53 14.8023 236.611 14.8023C240.692 14.8023 244 11.4887 244 7.40116C244 3.31361 240.692 -1.44601e-07 236.611 -3.22975e-07C232.53 -5.01349e-07 229.222 3.31361 229.222 7.40116Z" fill="#F2AA3D"/>
<path d="M189.815 7.40116C189.815 11.4887 193.123 14.8023 197.204 14.8023C201.285 14.8023 204.593 11.4887 204.593 7.40116C204.593 3.31361 201.285 -1.44601e-07 197.204 -3.22975e-07C193.123 -5.01349e-07 189.815 3.31361 189.815 7.40116Z" fill="#F2AA3D"/>
<path d="M152.05 7.40116C152.05 11.4887 155.359 14.8023 159.439 14.8023C163.52 14.8023 166.828 11.4887 166.828 7.40116C166.828 3.31361 163.52 -1.44601e-07 159.439 -3.22975e-07C155.359 -5.01349e-07 152.05 3.31361 152.05 7.40116Z" fill="#F2AA3D"/>
<path d="M114.719 7.40116C114.719 11.4887 118.027 14.8023 122.108 14.8023C126.188 14.8023 129.496 11.4887 129.496 7.40116C129.496 3.31361 126.188 -1.44601e-07 122.108 -3.22975e-07C118.027 -5.01349e-07 114.719 3.31361 114.719 7.40116Z" fill="#F2AA3D"/>
<path d="M74.8164 7.40116C74.8164 11.4887 78.1245 14.8023 82.2052 14.8023C86.2859 14.8023 89.594 11.4887 89.594 7.40116C89.594 3.31361 86.2859 -1.44601e-07 82.2052 -3.22975e-07C78.1245 -5.01349e-07 74.8164 3.31361 74.8164 7.40116Z" fill="#F2AA3D"/>
<path d="M37.833 7.40116C37.833 11.4887 41.1411 14.8023 45.2218 14.8023C49.3025 14.8023 52.6106 11.4887 52.6106 7.40116C52.6106 3.31361 49.3025 -1.44601e-07 45.2218 -3.22975e-07C41.1411 -5.01349e-07 37.833 3.31361 37.833 7.40116Z" fill="#F2AA3D"/>
<path d="M-3.17948e-05 7.40116C-3.19734e-05 11.4887 3.30805 14.8023 7.38878 14.8023C11.4695 14.8023 14.7776 11.4887 14.7776 7.40116C14.7776 3.31361 11.4695 -1.44601e-07 7.38878 -3.22975e-07C3.30805 -5.01349e-07 -3.16161e-05 3.31361 -3.17948e-05 7.40116Z" fill="#F2AA3D"/>
<path d="M229.222 49.3415C229.222 53.8833 232.53 57.5651 236.611 57.5651C240.692 57.5651 244 53.8833 244 49.3415C244 44.7998 240.692 41.118 236.611 41.118C232.53 41.118 229.222 44.7998 229.222 49.3415Z" fill="#F2AA3D"/>
<path d="M189.815 49.3415C189.815 53.8833 193.123 57.5651 197.204 57.5651C201.285 57.5651 204.593 53.8833 204.593 49.3415C204.593 44.7998 201.285 41.118 197.204 41.118C193.123 41.118 189.815 44.7998 189.815 49.3415Z" fill="#F2AA3D"/>
<path d="M152.05 49.3415C152.05 53.8833 155.359 57.5651 159.439 57.5651C163.52 57.5651 166.828 53.8833 166.828 49.3415C166.828 44.7998 163.52 41.118 159.439 41.118C155.359 41.118 152.05 44.7998 152.05 49.3415Z" fill="#F2AA3D"/>
<path d="M114.719 49.3415C114.719 53.8833 118.027 57.5651 122.108 57.5651C126.188 57.5651 129.496 53.8833 129.496 49.3415C129.496 44.7998 126.188 41.118 122.108 41.118C118.027 41.118 114.719 44.7998 114.719 49.3415Z" fill="#F2AA3D"/>
<path d="M74.8164 49.3415C74.8164 53.8832 78.1245 57.565 82.2052 57.565C86.2859 57.565 89.594 53.8832 89.594 49.3415C89.594 44.7998 86.2859 41.118 82.2052 41.118C78.1245 41.118 74.8164 44.7998 74.8164 49.3415Z" fill="#F2AA3D"/>
<path d="M37.8327 49.3415C37.8327 53.8832 41.1408 57.565 45.2215 57.565C49.3023 57.565 52.6104 53.8832 52.6104 49.3415C52.6104 44.7998 49.3023 41.118 45.2215 41.118C41.1408 41.118 37.8327 44.7998 37.8327 49.3415Z" fill="#F2AA3D"/>
<path d="M-3.18307e-05 49.3415C-3.20292e-05 53.8832 3.30805 57.565 7.38878 57.565C11.4695 57.565 14.7776 53.8832 14.7776 49.3415C14.7776 44.7998 11.4695 41.118 7.38878 41.118C3.30805 41.118 -3.16322e-05 44.7998 -3.18307e-05 49.3415Z" fill="#F2AA3D"/>
<path d="M229.222 134.043C229.222 138.131 232.53 141.444 236.611 141.444C240.692 141.444 244 138.131 244 134.043C244 129.956 240.692 126.642 236.611 126.642C232.53 126.642 229.222 129.956 229.222 134.043Z" fill="#F2AA3D"/>
<path d="M189.815 134.043C189.815 138.131 193.123 141.444 197.204 141.444C201.285 141.444 204.593 138.131 204.593 134.043C204.593 129.956 201.285 126.642 197.204 126.642C193.123 126.642 189.815 129.956 189.815 134.043Z" fill="#F2AA3D"/>
<path d="M152.05 134.043C152.05 138.131 155.359 141.444 159.439 141.444C163.52 141.444 166.828 138.131 166.828 134.043C166.828 129.956 163.52 126.642 159.439 126.642C155.359 126.642 152.05 129.956 152.05 134.043Z" fill="#F2AA3D"/>
<path d="M114.719 134.043C114.719 138.131 118.027 141.444 122.108 141.444C126.188 141.444 129.496 138.131 129.496 134.043C129.496 129.956 126.188 126.642 122.108 126.642C118.027 126.642 114.719 129.956 114.719 134.043Z" fill="#F2AA3D"/>
<path d="M74.8164 134.043C74.8164 138.131 78.1245 141.444 82.2052 141.444C86.2859 141.444 89.594 138.131 89.594 134.043C89.594 129.956 86.2859 126.642 82.2052 126.642C78.1245 126.642 74.8164 129.956 74.8164 134.043Z" fill="#F2AA3D"/>
<path d="M37.8327 134.043C37.8327 138.131 41.1408 141.444 45.2215 141.444C49.3023 141.444 52.6104 138.131 52.6104 134.043C52.6104 129.956 49.3023 126.642 45.2215 126.642C41.1408 126.642 37.8327 129.956 37.8327 134.043Z" fill="#F2AA3D"/>
<path d="M-3.17948e-05 134.043C-3.19734e-05 138.131 3.30805 141.444 7.38878 141.444C11.4695 141.444 14.7776 138.131 14.7776 134.043C14.7776 129.956 11.4695 126.642 7.38878 126.642C3.30805 126.642 -3.16161e-05 129.956 -3.17948e-05 134.043Z" fill="#F2AA3D"/>
<path d="M229.222 91.2812C229.222 95.3687 232.53 98.6824 236.611 98.6824C240.692 98.6824 244 95.3687 244 91.2812C244 87.1936 240.692 83.88 236.611 83.88C232.53 83.88 229.222 87.1936 229.222 91.2812Z" fill="#F2AA3D"/>
<path d="M189.815 91.2812C189.815 95.3687 193.123 98.6823 197.204 98.6823C201.285 98.6823 204.593 95.3687 204.593 91.2812C204.593 87.1936 201.285 83.88 197.204 83.88C193.123 83.88 189.815 87.1936 189.815 91.2812Z" fill="#F2AA3D"/>
<path d="M152.05 91.2812C152.05 95.3687 155.359 98.6823 159.439 98.6823C163.52 98.6823 166.828 95.3687 166.828 91.2812C166.828 87.1936 163.52 83.88 159.439 83.88C155.359 83.88 152.05 87.1936 152.05 91.2812Z" fill="#F2AA3D"/>
<path d="M114.719 91.2812C114.719 95.3687 118.027 98.6824 122.108 98.6824C126.188 98.6824 129.496 95.3687 129.496 91.2812C129.496 87.1936 126.188 83.88 122.108 83.88C118.027 83.88 114.719 87.1936 114.719 91.2812Z" fill="#F2AA3D"/>
<path d="M74.8164 91.2812C74.8164 95.3687 78.1245 98.6824 82.2052 98.6824C86.2859 98.6824 89.594 95.3687 89.594 91.2812C89.594 87.1936 86.2859 83.88 82.2052 83.88C78.1245 83.88 74.8164 87.1936 74.8164 91.2812Z" fill="#F2AA3D"/>
<path d="M37.8327 91.2812C37.8327 95.3687 41.1408 98.6823 45.2215 98.6823C49.3023 98.6823 52.6104 95.3687 52.6104 91.2812C52.6104 87.1936 49.3023 83.88 45.2215 83.88C41.1408 83.88 37.8327 87.1936 37.8327 91.2812Z" fill="#F2AA3D"/>
<path d="M-3.17948e-05 91.2812C-3.19734e-05 95.3687 3.30805 98.6823 7.38878 98.6823C11.4695 98.6823 14.7776 95.3687 14.7776 91.2812C14.7776 87.1936 11.4695 83.88 7.38878 83.88C3.30805 83.88 -3.16161e-05 87.1936 -3.17948e-05 91.2812Z" fill="#F2AA3D"/>
<path d="M229.222 176.806C229.222 180.893 232.53 184.207 236.611 184.207C240.692 184.207 244 180.893 244 176.806C244 172.718 240.692 169.405 236.611 169.405C232.53 169.405 229.222 172.718 229.222 176.806Z" fill="#F2AA3D"/>
<path d="M189.815 176.806C189.815 180.893 193.123 184.207 197.204 184.207C201.285 184.207 204.593 180.893 204.593 176.806C204.593 172.718 201.285 169.405 197.204 169.405C193.123 169.405 189.815 172.718 189.815 176.806Z" fill="#F2AA3D"/>
<path d="M152.05 176.806C152.05 180.893 155.359 184.207 159.439 184.207C163.52 184.207 166.828 180.893 166.828 176.806C166.828 172.718 163.52 169.405 159.439 169.405C155.359 169.405 152.05 172.718 152.05 176.806Z" fill="#F2AA3D"/>
<path d="M114.719 176.806C114.719 180.893 118.027 184.207 122.108 184.207C126.188 184.207 129.496 180.893 129.496 176.806C129.496 172.718 126.188 169.405 122.108 169.405C118.027 169.405 114.719 172.718 114.719 176.806Z" fill="#F2AA3D"/>
<path d="M74.8164 176.806C74.8164 180.893 78.1245 184.207 82.2052 184.207C86.2859 184.207 89.594 180.893 89.594 176.806C89.594 172.718 86.2859 169.405 82.2052 169.405C78.1245 169.405 74.8164 172.718 74.8164 176.806Z" fill="#F2AA3D"/>
<path d="M37.8327 176.806C37.8327 180.893 41.1408 184.207 45.2215 184.207C49.3023 184.207 52.6104 180.893 52.6104 176.806C52.6104 172.718 49.3023 169.405 45.2215 169.405C41.1408 169.405 37.8327 172.718 37.8327 176.806Z" fill="#F2AA3D"/>
<path d="M-3.17948e-05 176.806C-3.19734e-05 180.893 3.30805 184.207 7.38878 184.207C11.4695 184.207 14.7776 180.893 14.7776 176.806C14.7776 172.718 11.4695 169.405 7.38878 169.405C3.30805 169.405 -3.16161e-05 172.718 -3.17948e-05 176.806Z" fill="#F2AA3D"/>
</svg>
