<svg width="174" height="125" viewBox="0 0 174 125" fill="none" xmlns="http://www.w3.org/2000/svg">
<circle cx="8.00305" cy="8.00305" r="8.00305" fill="#F2AA3D"/>
<circle cx="8.00305" cy="43.8262" r="8.00305" fill="#F2AA3D"/>
<circle cx="8.00305" cy="80.4116" r="8.00305" fill="#F2AA3D"/>
<circle cx="8.00305" cy="116.997" r="8.00305" fill="#F2AA3D"/>
<circle cx="153.583" cy="8.00305" r="8.00305" fill="#F2AA3D"/>
<circle cx="153.583" cy="43.8262" r="8.00305" fill="#F2AA3D"/>
<circle cx="153.583" cy="80.4116" r="8.00305" fill="#F2AA3D"/>
<circle cx="153.583" cy="116.997" r="8.00305" fill="#F2AA3D"/>
<circle cx="81.174" cy="8.00305" r="8.00305" fill="#F2AA3D"/>
<circle cx="81.174" cy="43.8262" r="8.00305" fill="#F2AA3D"/>
<circle cx="81.174" cy="80.4116" r="8.00305" fill="#F2AA3D"/>
<circle cx="81.174" cy="116.997" r="8.00305" fill="#F2AA3D"/>
<circle cx="44.5885" cy="8.00305" r="8.00305" fill="#F2AA3D"/>
<circle cx="44.5885" cy="43.8262" r="8.00305" fill="#F2AA3D"/>
<circle cx="44.5885" cy="80.4116" r="8.00305" fill="#F2AA3D"/>
<circle cx="44.5885" cy="116.997" r="8.00305" fill="#F2AA3D"/>
<circle cx="116.997" cy="8.00305" r="8.00305" fill="#F2AA3D"/>
<circle cx="116.997" cy="43.8262" r="8.00305" fill="#F2AA3D"/>
<circle cx="116.997" cy="80.4116" r="8.00305" fill="#F2AA3D"/>
<circle cx="116.997" cy="116.997" r="8.00305" fill="#F2AA3D"/>
</svg>
