<svg viewBox="0 0 1920 1080">
  <defs>
    <style>
      .cls-1 {
        fill: #f2aa3d;
      }
    </style>
  </defs>
  <path id="Color_Fill_1" data-name="Color Fill 1" class="cls-1" d="M928,99c32.606-.34,114.01-5.451,142,5,11.21,4.186,18.02,16.959,28,22l12,1,76,42c31.79,18.561,65.3,23.957,86,53,39.59,55.529,60.56,131.685,87,199q15,35,30,70l15,20c3.8,15.454-19.19,16.333-28,20-13.84,5.76-88.05,47.21-97,42-6.37-4.091-7.31-17.634-11-26q-22.995-37.5-46-75h-1v2c-10.94,24.378-11.25,60.509-18,89-2.66,11.229,8.81,18.214,5,32q-5.505,7.5-11,15c-8.26,25.229,13.4,40.3,8,64q-4.005,7.5-8,15c-5.37,17.792,3.22,37.206,6,47,2.42,8.545-2.05,10.28-3,16-2.87,17.229,9.77,28.923,16,38-3.29,6.4-10.02,15.057-8,26q5.505,10,11,20c5.02,19.555.23,45.839,6,65,2.51,8.332,7.7,18.628,6,30-15.7,20.38-55.66,23.575-85,30-82.94,18.162-221.878,22.184-312,6-35.893-6.446-86.7-6.734-105-31,0.295-22.128,7.616-49.677,12-69V837l10-14c4.226-16.228-5.246-24.955-6-37,8.451-5.533,20.792-19.644,16-37-1.27-4.6-5.175-6.468-4-12l10-13c-0.53-5.539-.148-30.121-1-33-2.561-8.656-11.468-16.841-8-32,2.494-10.9,11.314-21.768,8-37-2.584-11.875-9.6-18.262-12-27-2.328-8.487,2.7-18.187,4-24,1.873-8.345-3.6-11.886-5-17-5.175-18.867-.286-72.658-17-70-12.664,33.594-34.728,51.671-43,92l-5,3L558,520V510c25.055-22.648,33.634-61.656,47-96,24.947-64.1,44.193-136.9,82-189,21.022-28.972,51.5-33.758,87-49,28.978-12.441,57.75-29.84,82-48l19-16a117.929,117.929,0,0,1,28-10Z"/>
</svg>
